HIERARCHY
ROOT Hips
{
	OFFSET 0.000000 0.000000 0.000000
	CHANNELS 6 Xposition Yposition Zposition Zrotation Yrotation Xrotation 
	JOINT LeftUpLeg_virtual
	{
		OFFSET 0.000000 0.000000 0.000000
		CHANNELS 3 Zrotation Yrotation Xrotation
		JOINT LeftUpLeg
		{
			OFFSET 8.479694 -4.795517 -0.379053
			CHANNELS 3 Zrotation Yrotation Xrotation
			JOINT LeftLeg
			{
				OFFSET 0.485052 -32.551468 0.112863
				CHANNELS 3 Zrotation Yrotation Xrotation
				JOINT LeftFoot
				{
					OFFSET 0.438033 -32.635670 -3.012641
					CHANNELS 3 Zrotation Yrotation Xrotation
					JOINT LeftToeBase
					{
						OFFSET 0.970169 -13.225353 11.864223
						CHANNELS 3 Zrotation Yrotation Xrotation
						End Site
						{
							OFFSET 0.000000 0.000000 0.000000
						}
					}
				}
			}
		}
	}
	JOINT RightUpLeg_virtual
	{
		OFFSET 0.000000 0.000000 0.000000
		CHANNELS 3 Zrotation Yrotation Xrotation
		JOINT RightUpLeg
		{
			OFFSET -8.479694 -4.795517 -0.379053
			CHANNELS 3 Zrotation Yrotation Xrotation
			JOINT RightLeg
			{
				OFFSET -0.484100 -32.551483 0.112903
				CHANNELS 3 Zrotation Yrotation Xrotation
				JOINT RightFoot
				{
					OFFSET -0.438985 -32.635651 -3.012681
					CHANNELS 3 Zrotation Yrotation Xrotation
					JOINT RightToeBase
					{
						OFFSET -0.970169 -13.225354 11.864223
						CHANNELS 3 Zrotation Yrotation Xrotation
						End Site
						{
							OFFSET 0.000000 0.000000 0.000000
						}
					}
				}
			}
		}
	}
	JOINT Spine_virtual
	{
		OFFSET 0.000000 0.000000 0.000000
		CHANNELS 3 Zrotation Yrotation Xrotation
		JOINT Spine
		{
			OFFSET 0.000000 7.722015 1.166203
			CHANNELS 3 Zrotation Yrotation Xrotation
			JOINT Spine1
			{
				OFFSET 0.000000 12.024086 0.248766
				CHANNELS 3 Zrotation Yrotation Xrotation
				JOINT Spine2
				{
					OFFSET -0.000000 11.503036 -0.491240
					CHANNELS 3 Zrotation Yrotation Xrotation
					JOINT Neck_virtual
					{
						OFFSET 0.000000 0.000000 0.000000
						CHANNELS 3 Zrotation Yrotation Xrotation
						JOINT Neck
						{
							OFFSET 0.000000 18.430687 -3.123054
							CHANNELS 3 Zrotation Yrotation Xrotation
							JOINT Head
							{
								OFFSET -0.000000 9.051071 1.034021
								CHANNELS 3 Zrotation Yrotation Xrotation
								End Site
								{
									OFFSET 0.000000 0.000000 0.000000
								}
							}
						}
					}
					JOINT LeftShoulder_virtual
					{
						OFFSET 0.000000 0.000000 0.000000
						CHANNELS 3 Zrotation Yrotation Xrotation
						JOINT LeftShoulder
						{
							OFFSET 6.197824 13.665230 -4.064723
							CHANNELS 3 Zrotation Yrotation Xrotation
							JOINT LeftArm
							{
								OFFSET 7.778132 -0.187073 -1.709282
								CHANNELS 3 Zrotation Yrotation Xrotation
								JOINT LeftForeArm
								{
									OFFSET 21.954697 0.000000 -2.041093
									CHANNELS 3 Zrotation Yrotation Xrotation
									JOINT LeftHand
									{
										OFFSET 22.992908 0.000000 -0.870901
										CHANNELS 3 Zrotation Yrotation Xrotation
										End Site
										{
											OFFSET 0.000000 0.000000 0.000000
										}
									}
								}
							}
						}
					}
					JOINT RightShoulder_virtual
					{
						OFFSET 0.000000 0.000000 0.000000
						CHANNELS 3 Zrotation Yrotation Xrotation
						JOINT RightShoulder
						{
							OFFSET -6.197824 13.665230 -4.064723
							CHANNELS 3 Zrotation Yrotation Xrotation
							JOINT RightArm
							{
								OFFSET -7.778132 -0.187073 -1.709282
								CHANNELS 3 Zrotation Yrotation Xrotation
								JOINT RightForeArm
								{
									OFFSET -21.954697 0.000000 -2.041093
									CHANNELS 3 Zrotation Yrotation Xrotation
									JOINT RightHand
									{
										OFFSET -22.992908 0.000000 -0.870901
										CHANNELS 3 Zrotation Yrotation Xrotation
										End Site
										{
											OFFSET 0.000000 0.000000 0.000000
										}
									}
								}
							}
						}
					}
				}
			}
		}
	}
}
MOTION
Frames: 10
Frame Time: 0.033333
51.044685 75.726212 71.836037 -179.867363 27.757061 -179.961469 -2.647421 2.005155 9.778161 -4.535583 -7.137413 -39.193791 10.776725 5.006220 29.210042 -2.361118 0.852447 -11.717687 0.000000 0.000000 0.000000 1.680821 2.223039 10.326022 -2.881574 -6.664969 -39.153533 -0.174812 2.165972 70.547221 5.142783 12.989442 -8.556261 0.000000 0.000000 0.000000 4.077107 4.638968 -2.410543 -0.065850 -0.668640 0.694795 -1.841036 -2.025559 3.894749 -0.047426 0.006332 -0.017838 -2.810126 0.032267 6.956208 -3.639852 -6.575825 -1.189223 0.000000 0.000000 0.000000 -1.045099 0.584731 4.316560 -3.110152 1.347463 -4.881458 -68.534965 -7.179364 -35.071450 -175.734566 -74.647124 -162.500241 0.000000 0.000000 0.000000 -5.082497 1.995916 4.074777 23.215634 -3.326931 -0.041114 55.610652 -3.980241 -9.416603 -0.950968 16.000022 -3.596213 0.000000 0.000000 0.000000 
52.458542 75.841270 70.135719 -179.968750 29.135395 -179.858115 -3.049609 2.466378 9.321455 -4.169004 -7.428363 -37.785433 11.818393 4.294327 31.050658 -2.389036 1.093289 -14.774418 0.000000 0.000000 0.000000 1.132050 2.941511 10.101027 -2.048289 -5.068689 -42.312759 -0.208847 2.255018 68.522165 5.028255 13.056846 -8.947751 0.000000 0.000000 0.000000 3.256834 5.255693 -2.296450 -0.068152 -0.986257 1.181526 -1.607221 -1.990854 3.982513 0.018223 0.009425 0.006241 -2.531400 0.002181 7.082225 -3.104409 -6.888720 -1.055885 0.000000 0.000000 0.000000 -0.768483 0.571537 4.353329 -2.275026 0.343674 -4.728744 -66.928949 -7.554801 -34.878494 -175.896550 -75.179920 -163.208081 0.000000 0.000000 0.000000 -4.813146 1.997377 4.117940 23.537315 -3.614848 -0.264977 55.711080 -4.976327 -9.700037 -1.020440 17.014175 -3.940884 0.000000 0.000000 0.000000 
53.966526 75.968941 68.425690 179.908439 30.476325 -179.973709 -3.519512 3.057608 9.125980 -3.774923 -7.310199 -36.260057 12.291591 3.380655 32.549079 -1.909372 1.554741 -17.654084 0.000000 0.000000 0.000000 0.585444 3.733255 9.884177 -1.091201 -3.039983 -44.330045 -0.499707 2.294767 62.674697 5.181072 12.867812 -8.480287 0.000000 0.000000 0.000000 2.324546 5.836023 -2.044230 -0.037558 -1.196573 1.815482 -1.347314 -1.892246 4.100375 0.028435 0.061366 0.110235 -2.217645 0.146013 7.192141 -2.553099 -7.231039 -0.838936 0.000000 0.000000 0.000000 -0.470186 0.572116 4.360568 -1.785661 -0.869218 -4.535119 -65.015854 -7.974462 -34.730378 -175.567964 -75.663941 -164.434045 0.000000 0.000000 0.000000 -4.494691 2.064876 4.112303 23.984689 -3.889467 -0.485838 55.425360 -6.068867 -9.614804 -1.050501 18.014093 -4.015212 0.000000 0.000000 0.000000 
55.544411 76.024857 66.556946 179.772669 31.161444 -179.906390 -4.097776 3.438858 9.120670 -3.262267 -6.964073 -34.928153 12.555090 2.894898 33.719766 -1.515091 1.374567 -20.122275 0.000000 0.000000 0.000000 0.016279 4.287408 9.594619 -0.094534 -0.698976 -45.913539 -0.955586 2.135692 53.993561 5.606684 12.351204 -7.230237 0.000000 0.000000 0.000000 1.445420 6.207354 -1.978748 0.042538 -1.395802 2.296350 -1.125129 -1.837176 4.311106 0.010447 0.069370 0.059952 -1.889023 0.157097 7.464299 -1.950906 -7.537107 -0.533097 0.000000 0.000000 0.000000 -0.227571 0.671622 4.537709 -1.564685 -2.261166 -4.320678 -63.346091 -8.628229 -34.602995 -174.875519 -76.200445 -165.992776 0.000000 0.000000 0.000000 -4.119857 2.091044 4.225168 24.373296 -4.109806 -0.663065 54.800838 -6.962337 -9.235145 -1.145243 18.596869 -4.100319 0.000000 0.000000 0.000000 
57.218304 75.958755 64.505829 179.703452 31.125152 -179.711334 -4.588601 3.729367 9.312131 -2.696779 -6.479324 -33.770146 12.661685 2.677357 35.045721 -1.275924 0.593123 -21.919120 0.000000 0.000000 0.000000 -0.494904 4.682395 9.232901 0.860218 1.877692 -47.250798 -1.384441 1.939018 44.241570 5.780138 11.914441 -5.777000 0.000000 0.000000 0.000000 0.828391 6.569871 -1.986492 0.189090 -1.389191 2.572193 -0.926791 -1.878962 4.407035 0.060596 -0.018744 -0.050181 -1.678188 0.213938 7.798017 -1.287866 -7.835350 -0.271960 0.000000 0.000000 0.000000 -0.080157 0.664084 4.770519 -1.744865 -3.583179 -4.151003 -62.136471 -9.375188 -34.207018 -175.383043 -76.728037 -166.286406 0.000000 0.000000 0.000000 -3.964150 2.175612 4.534728 24.815937 -4.227902 -0.809766 53.889496 -7.575680 -8.727684 -1.175873 18.628468 -4.111368 0.000000 0.000000 0.000000 
59.032654 75.786827 62.175091 179.536891 30.447375 -179.693316 -4.884328 3.733898 9.564065 -2.109548 -6.104653 -32.693206 12.773984 2.729365 36.523631 -1.307818 -0.913799 -23.518255 0.000000 0.000000 0.000000 -1.006179 4.809905 8.894999 1.614676 4.733788 -48.245191 -1.786989 1.663547 35.765070 5.887933 11.408246 -4.360318 0.000000 0.000000 0.000000 0.354156 6.395715 -2.172736 0.296933 -1.524125 2.689264 -0.850474 -1.734386 4.531613 0.043382 0.104410 0.089592 -1.443290 0.280978 8.128131 -0.583177 -8.032578 0.218633 0.000000 0.000000 0.000000 -0.028630 0.722451 4.907055 -2.042631 -4.748171 -4.006957 -61.570255 -10.033049 -33.946696 -175.558565 -77.131796 -166.777947 0.000000 0.000000 0.000000 -3.790201 2.247428 4.714948 25.271135 -4.239243 -0.882954 52.876869 -7.935065 -8.193381 -1.189183 18.252559 -4.073171 0.000000 0.000000 0.000000 
61.002243 75.604424 59.483727 179.542792 29.123336 -179.672320 -5.204239 3.719832 9.623486 -1.689513 -5.072227 -31.582665 12.701136 2.944134 38.023096 -0.827641 -1.650576 -24.144323 0.000000 0.000000 0.000000 -1.395936 4.662358 8.593519 2.407787 7.339499 -48.657438 -1.910870 1.647099 29.935568 5.491102 10.805236 -3.698483 0.000000 0.000000 0.000000 0.137068 6.299204 -2.581808 0.386168 -1.409912 2.635634 -0.796323 -1.696200 4.743385 0.025706 0.116997 0.113307 -1.392076 0.270687 8.384593 0.211304 -8.437550 0.598485 0.000000 0.000000 0.000000 -0.027266 0.629257 5.171505 -2.300936 -5.819132 -3.892973 -61.590992 -10.304600 -33.351097 -175.783866 -77.353006 -167.057179 0.000000 0.000000 0.000000 -3.746606 2.109244 4.821962 25.930074 -4.655511 -1.101756 52.053756 -8.406014 -7.764785 -1.111116 17.784153 -3.901807 0.000000 0.000000 0.000000 
63.176655 75.514938 56.488640 179.469777 27.011072 -179.706225 -5.218932 3.583729 9.517202 -1.401911 -3.850440 -30.174328 12.501788 2.737422 39.401681 -0.918684 -3.050664 -23.790360 0.000000 0.000000 0.000000 -1.712743 4.259040 8.273269 3.143229 9.447292 -47.983592 -1.869242 2.181466 26.557778 5.044463 10.479990 -2.242028 0.000000 0.000000 0.000000 -0.152784 5.698046 -3.281677 0.355015 -1.485704 2.454716 -0.756052 -1.756284 5.011325 0.051803 0.078201 -0.016889 -1.392415 0.255572 8.748138 0.913846 -8.585328 0.981236 0.000000 0.000000 0.000000 -0.013344 0.691675 5.393142 -2.460144 -6.405949 -3.731397 -62.168443 -9.765074 -32.869602 -175.982310 -77.204743 -167.222825 0.000000 0.000000 0.000000 -3.713295 2.157227 5.174977 26.464038 -4.941723 -1.408302 51.719640 -9.003721 -7.643368 -0.825475 17.463566 -3.469668 0.000000 0.000000 0.000000 
65.485779 75.550133 53.130695 179.268970 24.596235 -179.856653 -4.280401 3.303435 9.238650 -1.815129 -2.740117 -28.362174 12.551413 2.571236 40.611335 -3.372589 -5.123796 -21.739077 0.000000 0.000000 0.000000 -1.409952 4.154448 7.931217 2.998509 10.880884 -46.298806 -1.423964 4.242795 25.296710 4.674951 10.648883 -1.037297 0.000000 0.000000 0.000000 -0.594308 5.217990 -4.099390 0.131476 -1.491263 2.184299 -0.737828 -1.841345 5.192361 0.115686 0.012833 -0.046061 -1.362964 0.235757 9.113821 1.700744 -8.765780 1.189139 0.000000 0.000000 0.000000 -0.028653 0.552833 5.768661 -2.288091 -6.891859 -3.661219 -63.038152 -8.834671 -32.467110 -177.038435 -76.960058 -166.406986 0.000000 0.000000 0.000000 -3.769939 2.118388 5.427508 27.029336 -5.634696 -1.699100 51.902560 -9.636255 -7.646252 -0.716304 17.455725 -3.357581 0.000000 0.000000 0.000000 
67.640678 75.685394 49.679501 179.108010 22.347243 179.515253 -6.007648 2.843207 8.812385 2.263913 -1.895692 -26.512563 9.646308 1.434522 41.816973 -4.542639 -5.922761 -18.664090 0.000000 0.000000 0.000000 -0.029018 4.168598 7.747769 1.935708 11.701542 -44.279871 -1.363946 5.551209 26.510715 4.616019 11.529504 -2.512101 0.000000 0.000000 0.000000 -0.981321 4.661527 -4.648123 -0.198058 -1.484943 2.151566 -0.725272 -1.821193 5.515781 0.050474 0.026013 -0.011608 -1.282887 0.106851 9.373344 2.452782 -8.805704 1.483618 0.000000 0.000000 0.000000 0.105953 0.550309 5.844636 -1.727490 -7.067577 -3.632651 -64.241617 -7.607712 -32.382074 -178.478567 -76.540022 -165.158960 0.000000 0.000000 0.000000 -3.749418 1.975056 5.587480 27.311387 -6.228234 -2.067754 52.500106 -10.000768 -8.044722 -0.436718 17.640748 -3.035213 0.000000 0.000000 0.000000 
